# xmcd CD database file
#
# Track frame offsets:
#	150
#	20137
#	41200
#	64962
#	86357
#	112492
#	139992
#	160272
#	187525
#	212480
#
# Disc length: 3111 seconds
#
# Revision: 0
# Processed by: cddbd v1.5.2PL0 Copyright (c) Steve Scherf et al.
# Submitted via: CDex 1.70beta2
#
DISCID=8f0c250a
DTITLE=Various Artist - Claasicos De Cuba Salsa
DYEAR=1900
DGENRE=Salsa
TTITLE0=Orquesta Reve - Suave Suavito
TTITLE1=Orquesta Reve - En El Cachumbambe
TTITLE2=Orquesta Aragon - Con Tremenda Sabrosura
TTITLE3=N.G La Banda - Los Sitios Enteros
TTITLE4=Los Van Van - Aqui El Que Baila Gana
TTITLE5=N.G. La Banda - No Se Puede Tapar El Sol
TTITLE6=Los Van Van - Bailando Mojao
TTITLE7=J.C Y El Dan Den - Solve
TTITLE8=Adalberto Alvarez Y Su Son - Meneame La Cuna
TTITLE9=Orquesta America - Quien Ha Visto Por Ahi
EXTD=
EXTT0=
EXTT1=
EXTT2=
EXTT3=
EXTT4=
EXTT5=
EXTT6=
EXTT7=
EXTT8=
EXTT9=
PLAYORDER=
